<svg xmlns="http://www.w3.org/2000/svg" viewBox="0 0 512 512"><defs><linearGradient id="g" x1="0" y1="0" x2="1" y2="1"><stop stop-color="#183f46"/><stop offset="1" stop-color="#0b7770"/></linearGradient></defs><rect width="512" height="512" rx="128" fill="url(#g)"/><path d="M128 170c0-26 21-47 47-47h73c26 0 47 21 47 47s-21 47-47 47h-73v78h73c26 0 47 21 47 47s-21 47-47 47h-73c-26 0-47-21-47-47V170Z" fill="#dff26e"/><path d="M264 217h73c26 0 47 21 47 47s-21 47-47 47h-73v-94Z" fill="#8de3d2"/><circle cx="382" cy="123" r="27" fill="#fff" opacity=".9"/></svg>
